<?xml version="1.0" standalone="no"?>
<!DOCTYPE svg PUBLIC "-//W3C//DTD SVG 20010904//EN"
 "http://www.w3.org/TR/2001/REC-SVG-20010904/DTD/svg10.dtd">
<svg version="1.0" xmlns="http://www.w3.org/2000/svg"
 width="2048.000000pt" height="2048.000000pt" viewBox="0 0 2048.000000 2048.000000"
 preserveAspectRatio="xMidYMid meet">
<metadata>
Created by potrace 1.11, written by Peter Selinger 2001-2013
</metadata>
<g transform="translate(0.000000,2048.000000) scale(0.100000,-0.100000)"
fill="#000000" stroke="none">
<path d="M10266 18114 c-176 -39 -312 -128 -366 -238 -24 -50 -88 -333 -124
-551 -51 -304 -60 -398 -60 -665 -1 -361 18 -445 142 -612 231 -312 432 -659
497 -856 l27 -83 28 83 c39 113 76 194 155 334 77 136 239 384 343 525 116
157 146 279 145 599 0 285 -38 580 -124 985 -46 215 -75 282 -148 346 -127
112 -351 170 -515 133z"/>
<path d="M7609 17671 c-97 -20 -151 -95 -169 -235 -28 -223 72 -534 271 -836
53 -81 62 -90 101 -100 798 -207 1535 -629 2159 -1238 l157 -152 15 37 15 38
-73 145 c-368 727 -870 1388 -1362 1798 -421 350 -906 586 -1114 543z"/>
<path d="M13005 17665 c-190 -35 -501 -191 -764 -383 -351 -255 -707 -624
-1002 -1037 -231 -322 -424 -642 -580 -957 l-53 -107 18 -38 18 -38 30 37 c40
51 284 278 421 392 532 444 1150 770 1791 947 l116 31 55 87 c71 110 186 343
219 444 42 128 59 240 53 347 -9 171 -61 256 -169 280 -58 12 -63 12 -153 -5z"/>
<path d="M6306 16915 c-110 -50 -228 -76 -376 -84 l-125 -6 65 -44 c166 -113
326 -270 445 -436 36 -49 95 -150 131 -222 l66 -133 202 0 c312 0 791 -31
1106 -70 719 -91 1361 -307 1944 -654 71 -42 130 -75 132 -73 2 2 -38 39 -89
83 -708 613 -1507 1023 -2421 1244 -260 63 -398 125 -637 286 -183 124 -209
136 -294 141 -63 3 -78 0 -149 -32z"/>
<path d="M14220 16931 c-25 -9 -112 -62 -195 -118 -270 -180 -358 -219 -689
-303 -878 -222 -1653 -618 -2321 -1185 -139 -118 -172 -152 -110 -115 646 386
1219 593 1926 694 338 49 865 86 1220 86 l205 0 33 75 c77 174 207 361 352
507 81 81 279 238 300 238 5 0 9 5 9 10 0 6 -36 10 -89 10 -143 0 -291 33
-416 92 -71 33 -155 37 -225 9z"/>
<path d="M5100 16282 c-25 -1 -76 -7 -114 -13 l-69 -11 6 -82 c6 -98 43 -218
94 -306 51 -88 189 -225 293 -293 310 -200 703 -306 1249 -337 l185 -10 370
50 c204 28 425 60 491 70 260 41 422 53 715 53 521 0 961 -72 1455 -238 105
-35 191 -62 193 -61 9 10 -530 250 -792 353 -403 158 -710 246 -1072 307 -555
93 -1033 130 -1389 107 -416 -27 -778 61 -1094 267 -162 105 -341 155 -521
144z"/>
<path d="M15540 16279 c-140 -12 -294 -67 -401 -144 -123 -88 -389 -196 -578
-235 -168 -34 -305 -41 -532 -29 -384 22 -922 -24 -1479 -126 -304 -56 -609
-149 -990 -300 -266 -106 -738 -318 -759 -341 -3 -4 3 -4 14 1 105 41 373 125
510 160 592 150 1176 182 1765 94 74 -11 314 -44 532 -74 l397 -55 185 10
c469 26 806 104 1113 259 329 166 512 406 525 691 l3 64 -52 12 c-70 16 -162
20 -253 13z"/>
<path d="M5146 15464 c67 -161 218 -410 351 -574 150 -188 378 -391 599 -537
l111 -73 82 0 c110 0 344 25 519 55 287 50 563 132 827 247 208 91 358 150
645 258 397 148 606 209 835 242 134 19 552 16 684 -5 57 -9 106 -15 108 -13
13 13 -407 121 -617 160 -625 114 -1328 113 -1810 -3 -445 -108 -953 -118
-1418 -30 -253 48 -531 134 -769 239 -76 34 -144 64 -150 67 -9 4 -8 -6 3 -33z"/>
<path d="M15515 15451 c-296 -141 -666 -247 -1040 -297 -164 -22 -618 -26
-775 -6 -162 20 -323 49 -455 81 -450 110 -1192 105 -1795 -10 -231 -45 -601
-141 -588 -154 2 -2 48 3 103 11 55 8 183 17 285 21 272 8 476 -15 725 -83
220 -60 789 -273 1132 -422 88 -39 201 -85 250 -102 318 -113 726 -192 1058
-207 l140 -6 105 70 c333 221 614 509 806 823 53 87 164 305 164 323 0 11 -9
8 -115 -42z"/>
<path d="M9386 15019 c-455 -30 -1002 -195 -1417 -425 -358 -199 -713 -304
-1249 -369 -224 -28 -297 -44 -324 -74 -75 -83 204 -248 804 -474 324 -122
461 -167 464 -154 2 6 11 44 20 82 24 104 70 189 140 260 75 77 134 107 338
174 254 83 496 194 731 335 185 112 255 164 507 381 139 120 376 195 618 195
68 0 93 3 90 12 -14 42 -447 76 -722 57z"/>
<path d="M10975 15020 c-275 -20 -440 -70 -232 -70 177 -1 341 -36 482 -105
68 -33 117 -67 200 -141 331 -294 725 -516 1180 -666 207 -68 264 -98 345
-185 69 -73 114 -162 137 -268 14 -61 20 -75 32 -69 9 3 84 30 166 59 480 169
833 321 990 426 78 53 105 84 105 123 0 51 -41 63 -340 101 -559 70 -883 168
-1285 390 -339 187 -828 342 -1225 389 -165 20 -406 26 -555 16z"/>
<path d="M10340 14938 c-126 -130 -213 -452 -229 -858 -10 -234 -30 -346 -108
-585 -66 -201 -101 -291 -183 -460 -438 -904 -802 -1965 -980 -2855 -89 -447
-120 -723 -127 -1132 -7 -393 11 -704 63 -1083 106 -784 347 -1588 679 -2272
l93 -192 68 -21 c38 -12 139 -33 224 -47 140 -23 188 -26 491 -30 301 -4 351
-3 490 16 201 28 304 48 357 72 42 18 45 23 132 201 578 1192 848 2669 710
3888 -110 967 -520 2302 -1040 3380 -221 458 -316 783 -325 1107 -10 395 -101
736 -233 876 -33 35 -43 34 -82 -5z"/>
<path d="M10185 14923 c-169 -23 -405 -97 -569 -179 -160 -80 -264 -154 -405
-289 -69 -67 -146 -135 -171 -152 -84 -57 -234 -131 -545 -268 -382 -169 -415
-186 -472 -238 -63 -58 -93 -124 -93 -209 0 -112 -3 -110 175 -167 288 -94
587 -169 895 -225 161 -29 522 -76 589 -76 l48 0 67 91 c131 175 222 352 269
524 21 75 22 97 19 372 -2 236 1 306 13 369 29 140 95 279 186 394 39 50 45
61 32 59 -5 -1 -21 -4 -38 -6z"/>
<path d="M10540 14924 c0 -4 19 -32 42 -62 56 -75 131 -221 157 -305 37 -120
44 -223 30 -422 -15 -218 -5 -320 46 -472 54 -161 153 -339 274 -490 50 -63
43 -63 296 -33 315 37 661 105 975 191 223 61 459 141 465 158 13 34 16 129 6
168 -17 63 -70 133 -134 176 -32 22 -176 91 -320 154 -328 143 -545 248 -634
305 -37 24 -127 100 -199 169 -176 168 -314 257 -529 344 -91 36 -312 98 -395
110 -25 4 -53 9 -62 11 -10 3 -18 2 -18 -2z"/>
<path d="M6781 13684 c-16 -41 -51 -105 -78 -142 -132 -187 -638 -872 -956
-1296 -404 -538 -467 -630 -572 -836 -154 -304 -242 -582 -292 -915 -25 -171
-25 -660 0 -865 113 -918 531 -1800 1231 -2597 49 -57 91 -101 94 -99 2 2 -21
69 -51 148 -215 558 -342 1126 -387 1733 -13 178 -13 608 0 790 74 1024 401
1985 978 2865 119 183 335 474 433 584 9 10 27 -1 161 -99 l96 -71 -105 -154
c-222 -328 -366 -577 -575 -994 -361 -720 -548 -1270 -653 -1919 -75 -462 -82
-859 -25 -1427 59 -581 148 -942 321 -1289 414 -833 1255 -1367 2354 -1496
169 -20 465 -31 465 -18 0 5 -27 59 -61 119 -431 770 -702 1632 -801 2539 -20
185 -22 261 -23 645 0 466 8 591 61 960 114 805 405 1689 788 2400 42 78 76
144 76 147 0 3 -35 -28 -77 -68 -183 -174 -379 -276 -579 -299 -103 -12 -257
4 -354 36 -314 105 -540 424 -595 841 -16 121 -19 343 -6 456 5 44 3 71 -3 76
-6 4 -175 70 -376 146 -201 76 -386 146 -411 156 l-47 18 -31 -75z"/>
<path d="M13471 13599 c-227 -87 -415 -160 -417 -162 -3 -2 0 -68 6 -146 18
-236 -8 -468 -72 -651 -38 -107 -68 -166 -129 -255 -125 -182 -268 -285 -464
-335 -115 -30 -292 -30 -400 -1 -167 46 -332 143 -472 277 -42 41 -78 74 -80
74 -1 0 20 -42 48 -92 188 -342 380 -789 520 -1208 340 -1021 444 -2049 309
-3068 -104 -788 -378 -1613 -768 -2316 -40 -71 -72 -131 -72 -134 0 -3 78 -2
173 1 852 31 1623 330 2143 830 404 388 654 874 763 1482 80 447 120 1097 92
1475 -50 664 -212 1287 -516 1975 -83 188 -329 674 -434 857 -107 187 -256
425 -353 562 -39 55 -72 105 -74 111 -4 10 223 185 240 185 8 0 150 -178 248
-310 215 -290 391 -580 562 -920 611 -1224 776 -2568 480 -3905 -63 -284 -184
-675 -283 -914 -17 -41 -29 -76 -27 -78 10 -11 234 253 391 462 666 885 1009
1911 956 2854 -24 418 -106 739 -281 1100 -112 230 -186 341 -520 786 -354
472 -616 826 -897 1211 -145 200 -197 279 -218 333 -14 39 -30 72 -33 74 -4 2
-193 -67 -421 -154z"/>
<path d="M8065 13353 c6 -6 47 -38 93 -71 315 -232 697 -400 1069 -472 166
-32 150 -39 238 105 43 69 76 127 74 129 -2 1 -94 8 -204 14 -415 24 -751 97
-1109 239 -175 69 -173 68 -161 56z"/>
<path d="M12545 13324 c-106 -47 -314 -118 -450 -154 -245 -66 -444 -96 -738
-113 l-197 -12 77 -128 78 -129 59 6 c223 22 568 137 836 277 162 86 463 289
425 288 -5 0 -46 -16 -90 -35z"/>
<path d="M8421 5247 c-23 -60 -62 -200 -83 -297 -19 -92 -22 -135 -23 -350 0
-218 3 -258 23 -360 65 -318 221 -647 426 -891 68 -81 193 -167 361 -249 206
-100 401 -151 650 -169 180 -14 946 -14 1135 0 330 23 597 112 861 288 115 77
181 150 298 331 315 486 395 1080 220 1626 -28 87 -32 95 -52 90 -46 -11 -377
-66 -487 -81 -484 -64 -2048 -72 -2680 -14 -157 14 -501 68 -617 96 -18 4 -25
-1 -32 -20z"/>
</g>
</svg>
